<?xml version="1.0" encoding="iso-8859-1"?>
<!-- Uploaded to: SVG Repo, www.svgrepo.com, Generator: SVG Repo Mixer Tools -->
<svg fill="#000000" height="800px" width="800px" version="1.1" id="Layer_1" xmlns="http://www.w3.org/2000/svg" xmlns:xlink="http://www.w3.org/1999/xlink" 
	 viewBox="0 0 501.334 501.334" xml:space="preserve">
<g>
	<g>
		<path d="M465.011,7.467c-4.267-4.267-9.6-7.467-16-7.467H53.277c-6.4,0-11.733,3.2-16,7.467c-4.267,4.267-6.4,10.667-5.333,17.067
			l73.6,459.733c1.067,9.6,9.6,17.067,20.267,17.067h249.6c9.6,0,19.2-7.467,20.267-17.067l73.6-459.733
			C470.344,18.133,469.277,11.733,465.011,7.467z M357.277,459.733H143.944v0l-19.2-119.467l6.4-11.733
			c18.133-10.667,40.533-9.6,58.667,2.133c33.067,20.267,74.667,20.267,107.733,0l1.067-1.067c19.2-12.8,41.6-12.8,60.8-2.133
			l16,19.2L357.277,459.733z M382.877,294.4c-33.067-21.333-74.667-20.267-107.733,0l-1.067,1.067c-19.2,12.8-42.667,12.8-62.933,0
			c-28.8-18.133-64-20.267-94.933-6.4l-12.8-78.933l24.533-14.933c19.2-12.8,42.667-12.8,62.933,0
			c33.067,20.267,74.667,20.267,107.733,0l1.067-1.067c19.2-12.8,42.667-12.8,62.933,0l33.067,21.333L382.877,294.4z M403.144,169.6
			l-18.133-11.733c-33.067-20.267-74.667-21.333-107.733,0l-1.067,1.067c-19.2,12.8-42.667,12.8-62.933,0
			c-33.067-20.267-74.667-20.267-107.733,0l-9.6,5.333L75.677,41.6h346.667L403.144,169.6z"/>
	</g>
</g>
</svg>